<?xml version="1.0" encoding="utf-8"?>
<!-- Generator: Adobe Illustrator 18.0.0, SVG Export Plug-In . SVG Version: 6.00 Build 0)  -->
<!DOCTYPE svg PUBLIC "-//W3C//DTD SVG 1.1//EN" "http://www.w3.org/Graphics/SVG/1.1/DTD/svg11.dtd">
<svg version="1.1" id="Layer_1" xmlns="http://www.w3.org/2000/svg" xmlns:xlink="http://www.w3.org/1999/xlink" x="0px" y="0px"
	 viewBox="0 0 136.1 157.1" enable-background="new 0 0 136.1 157.1" xml:space="preserve">
<g>
	<path fill="#EA1467" d="M93.4,82.7H81.4v10.4h12.4c4.6,0,7.4-1.6,7.4-5.2v-0.1C101.2,84.7,98.8,82.7,93.4,82.7z"/>
	<path fill="#EA1467" d="M68,0L0,39.3v78.6l68,39.3l68-39.3V39.3L68,0z M62.1,88.3c0,9.4-7.2,14.7-17.4,14.7
		c-7.2,0-14.4-2.5-20.1-7.6l6.2-7.4c4.3,3.5,8.7,5.8,14.2,5.8c4.3,0,6.8-1.7,6.8-4.5v-0.1c0-2.6-1.6-4-9.6-6
		c-9.6-2.4-15.7-5.1-15.7-14.5v-0.1c0-8.6,6.9-14.3,16.6-14.3c6.9,0,12.8,2.2,17.6,6l-5.4,7.9c-4.2-2.9-8.3-4.7-12.3-4.7
		c-4,0-6.1,1.8-6.1,4.1v0.1c0,3.1,2,4.1,10.2,6.2c9.6,2.5,15.1,6,15.1,14.2V88.3z M111.5,89.3c0,8.7-7,13-17.8,13H71.2V54.8h22
		c5.4,0,9.7,1.5,12.4,4.2c2.2,2.2,3.3,4.8,3.3,8.1v0.1c0,5.4-2.9,8.3-6.2,10.2c5.5,2.1,8.9,5.3,8.9,11.7V89.3z"/>
	<path fill="#EA1467" d="M98.5,69v-0.1c0-3.1-2.4-4.9-6.8-4.9H81.4v10H91C95.6,74,98.5,72.5,98.5,69z"/>
</g>
</svg>
