<?xml version="1.0" encoding="utf-8"?>
<!-- Generator: Adobe Illustrator 18.0.0, SVG Export Plug-In . SVG Version: 6.00 Build 0)  -->
<!DOCTYPE svg PUBLIC "-//W3C//DTD SVG 1.1//EN" "http://www.w3.org/Graphics/SVG/1.1/DTD/svg11.dtd">
<svg version="1.1" xmlns="http://www.w3.org/2000/svg" xmlns:xlink="http://www.w3.org/1999/xlink" x="0px" y="0px"
	 viewBox="0 0 110 189" enable-background="new 0 0 110 189" xml:space="preserve">
<g id="Layer_1" display="none">
	<g display="inline">
		<path d="M55,97.7l48.7,84.3H55H6.3L55,97.7 M55,91.7l-2.6,4.5L3.7,180.4l-2.6,4.5h5.2H55h48.7h5.2l-2.6-4.5L57.6,96.2L55,91.7
			L55,91.7z"/>
	</g>
	<g display="inline">
		<path d="M103.7,7.4L55,91.7L6.3,7.4H55H103.7 M108.9,4.4h-5.2H55H6.3H1.1l2.6,4.5l48.7,84.3l2.6,4.5l2.6-4.5l48.7-84.3L108.9,4.4
			L108.9,4.4z"/>
	</g>
	<polygon display="inline" points="-25.5,126.9 -44.8,93.4 -25.5,93.4 -6.2,93.4 	"/>
	<polygon display="inline" points="55,141.8 96.7,179.4 55,179.4 13.3,179.4 	"/>
	<text transform="matrix(1 0 0 1 -24.0977 251.4264)" display="inline" font-family="'Futura-Medium'" font-size="35.1736">NGDWYL</text>
	<path display="inline" d="M55,46.6c-9.2-8.6-20.1,0.8-16.2,11C42.1,66.7,55,86.3,55,86.3s12.6-20.1,16-29.1
		C74.8,47,64.2,38.1,55,46.6z"/>
</g>
<g id="Layer_1_copy">
	<g>
		<path fill="#515251" d="M55,97.7l48.7,84.3H55H6.3L55,97.7 M55,91.7l-2.6,4.5L3.7,180.4l-2.6,4.5h5.2H55h48.7h5.2l-2.6-4.5
			L57.6,96.2L55,91.7L55,91.7z"/>
	</g>
	<g>
		<path fill="#515251" d="M103.7,7.4L55,91.7L6.3,7.4H55H103.7 M108.9,4.4h-5.2H55H6.3H1.1l2.6,4.5l48.7,84.3l2.6,4.5l2.6-4.5
			l48.7-84.3L108.9,4.4L108.9,4.4z"/>
	</g>
	<polygon fill="#515251" points="54.9,86.3 35.5,52.8 54.9,58.8 74.2,52.8 	"/>
	<polygon fill="#515251" points="55,141.8 96.7,179.4 55,179.4 13.3,179.4 	"/>
</g>
</svg>
