<?xml version="1.0" encoding="utf-8"?>
<!-- Generator: Adobe Illustrator 18.0.0, SVG Export Plug-In . SVG Version: 6.00 Build 0)  -->
<!DOCTYPE svg PUBLIC "-//W3C//DTD SVG 1.1//EN" "http://www.w3.org/Graphics/SVG/1.1/DTD/svg11.dtd">
<svg version="1.1" id="Layer_1" xmlns="http://www.w3.org/2000/svg" xmlns:xlink="http://www.w3.org/1999/xlink" x="0px" y="0px"
	 viewBox="0 0 97.3 152.5" enable-background="new 0 0 97.3 152.5" xml:space="preserve">
<g>
	<g>
		<path fill="#EB1767" d="M66.8,59.1h-8.6v7.5H67c3.3,0,5.3-1.2,5.3-3.7v-0.1C72.3,60.5,70.6,59.1,66.8,59.1z"/>
		<path fill="#EB1767" d="M48.6,0L0,28.1v56.2l48.6,28.1l48.6-28.1V28.1L48.6,0z M44.4,63.1c0,6.7-5.1,10.5-12.5,10.5
			c-5.1,0-10.3-1.8-14.4-5.4l4.4-5.3C25,65.4,28.2,67,32.1,67c3.1,0,4.9-1.2,4.9-3.2v-0.1c0-1.9-1.2-2.9-6.8-4.3
			c-6.8-1.7-11.2-3.6-11.2-10.4v-0.1c0-6.2,4.9-10.2,11.9-10.2c4.9,0,9.2,1.6,12.6,4.3l-3.9,5.6c-3-2.1-6-3.3-8.8-3.3
			c-2.9,0-4.4,1.3-4.4,3v0.1c0,2.2,1.5,3,7.3,4.5C40.5,54.6,44.4,57.1,44.4,63.1L44.4,63.1z M79.7,63.8c0,6.2-5,9.3-12.7,9.3H50.9
			V39.2h15.8c3.9,0,6.9,1.1,8.9,3c1.5,1.6,2.3,3.4,2.3,5.8v0.1c0,3.8-2,6-4.5,7.3C77.3,56.9,79.7,59.2,79.7,63.8L79.7,63.8z"/>
		<path fill="#EB1767" d="M70.4,49.3L70.4,49.3c0-2.3-1.7-3.6-4.9-3.6h-7.4v7.2H65C68.3,52.9,70.4,51.8,70.4,49.3z"/>
	</g>
	<g>
		<path fill="#EB1767" d="M17.8,129.5h3.5v12.9h8v3.2H17.8V129.5z"/>
		<path fill="#EB1767" d="M38,129.4h3.3l6.9,16.2h-3.7L43,142h-6.8l-1.5,3.6h-3.6L38,129.4z M41.7,138.9l-2.1-5.2l-2.1,5.2H41.7z"/>
		<path fill="#EB1767" d="M51.1,129.5h7.5c1.8,0,3.3,0.5,4.2,1.4c0.7,0.7,1.1,1.6,1.1,2.7v0c0,1.8-1,2.8-2.1,3.5c1.9,0.7,3,1.8,3,4
			v0c0,2.9-2.4,4.4-6,4.4h-7.7V129.5z M57.8,136.1c1.6,0,2.6-0.5,2.6-1.7v0c0-1.1-0.8-1.7-2.3-1.7h-3.5v3.4H57.8z M58.8,142.5
			c1.6,0,2.5-0.6,2.5-1.7v0c0-1.1-0.8-1.7-2.6-1.7h-4.1v3.5H58.8z"/>
		<path fill="#EB1767" d="M67.1,143.3l2.1-2.5c1.4,1.2,3,2,4.8,2c1.4,0,2.3-0.6,2.3-1.5v0c0-0.9-0.6-1.4-3.2-2
			c-3.2-0.8-5.3-1.7-5.3-4.9v0c0-2.9,2.3-4.9,5.6-4.9c2.3,0,4.3,0.7,6,2l-1.8,2.7c-1.4-1-2.8-1.6-4.2-1.6s-2.1,0.6-2.1,1.4v0
			c0,1.1,0.7,1.4,3.5,2.1c3.3,0.9,5.1,2,5.1,4.8v0c0,3.2-2.4,5-5.9,5C71.5,145.9,69,145,67.1,143.3z"/>
	</g>
</g>
</svg>
